<svg width="25" height="25" viewBox="0 0 25 25" fill="none" xmlns="http://www.w3.org/2000/svg">
    <path fill-rule="evenodd" clip-rule="evenodd"
        d="M9.65231 11.6264H6.32092C5.8158 11.6264 5.41892 11.2088 5.41892 10.7052C5.41892 10.1893 5.8158 9.78396 6.32092 9.78396H9.65231C10.1574 9.78396 10.5543 10.1893 10.5543 10.7052C10.5543 11.2088 10.1574 11.6264 9.65231 11.6264ZM2.36412 5.24051C1.6305 5.24051 1.14943 5.49845 0.668362 6.06346C0.187294 6.62848 0.103107 7.43915 0.211348 8.1749L1.35388 16.2325C1.57036 17.7814 2.86925 18.9224 4.39664 18.9224H17.5178C19.1173 18.9224 20.4402 17.6708 20.5725 16.0495L21.679 2.65987L23.495 2.34051C23.9761 2.25453 24.3128 1.7755 24.2287 1.28418C24.1445 0.78181 23.6754 0.448943 23.1823 0.523869L20.314 0.964826C19.9051 1.03975 19.6044 1.38244 19.5683 1.80006L19.3398 4.55144C19.3037 4.94572 18.991 5.24051 18.6062 5.24051H2.36412ZM17.7105 20.8638C18.7208 20.8638 19.5386 21.699 19.5386 22.7308C19.5386 23.7503 18.7208 24.5855 17.7105 24.5855C16.7123 24.5855 15.8945 23.7503 15.8945 22.7308C15.8945 21.699 16.7123 20.8638 17.7105 20.8638ZM4.18038 20.8638C5.19063 20.8638 6.00844 21.699 6.00844 22.7308C6.00844 23.7503 5.19063 24.5855 4.18038 24.5855C3.18217 24.5855 2.36435 23.7503 2.36435 22.7308C2.36435 21.699 3.18217 20.8638 4.18038 20.8638Z"
        fill="#555555" />
</svg>