<svg width="26" height="26" viewBox="0 0 26 26" fill="none" xmlns="http://www.w3.org/2000/svg">
    <path fill-rule="evenodd" clip-rule="evenodd"
        d="M19.0696 0.670807H7.1387C2.7938 0.670807 0.340925 3.09244 0.32815 7.36198V19.0872C0.32815 23.3555 2.7938 25.7784 7.1387 25.7784H19.0696C23.4145 25.7784 25.8789 23.3555 25.8789 19.0872V7.36198C25.8789 3.09244 23.4145 0.670807 19.0696 0.670807ZM13.0408 20.5812C12.4902 20.5812 12.0315 20.1794 11.9804 19.6396V6.84729C11.9293 6.45812 12.1197 6.0677 12.4646 5.85554C12.8236 5.64212 13.258 5.64212 13.6016 5.85554C13.9478 6.0677 14.1382 6.45812 14.1011 6.84729V19.6396C14.036 20.1794 13.5773 20.5812 13.0408 20.5812ZM7.16279 20.5811C6.62623 20.5811 6.16759 20.1794 6.10244 19.6396V15.5219C6.06539 15.119 6.25574 14.7436 6.60195 14.5302C6.94561 14.3168 7.37997 14.3168 7.73768 14.5302C8.0839 14.7436 8.27425 15.119 8.22315 15.5219V19.6396C8.17205 20.1794 7.71341 20.5811 7.16279 20.5811ZM17.9338 19.6396C17.9849 20.1794 18.4435 20.5811 18.9941 20.5811C19.5435 20.5811 20.0034 20.1794 20.0532 19.6396V10.9649C20.0915 10.5745 19.9012 10.1866 19.555 9.97317C19.2113 9.75976 18.7757 9.75976 18.4307 9.97317C18.0871 10.1866 17.8942 10.5745 17.9338 10.9649V19.6396Z"
        fill="#555555" />
</svg>