<svg width="31" height="31" viewBox="0 0 31 31" fill="none" xmlns="http://www.w3.org/2000/svg">
<path fill-rule="evenodd" clip-rule="evenodd" d="M19.9292 16.5593C19.9292 16.9792 19.5887 17.3197 19.1688 17.3197L5.98815 17.3197C5.56818 17.3197 5.22773 16.9792 5.22773 16.5592C5.22773 16.1393 5.56818 15.7988 5.98815 15.7988L19.1688 15.7988C19.5887 15.7988 19.9292 16.1393 19.9292 16.5593Z" fill="#555555" stroke="#555555" stroke-width="0.313984" stroke-linecap="round"/>
<path fill-rule="evenodd" clip-rule="evenodd" d="M10.5815 22.4436C10.2845 22.7405 9.80304 22.7405 9.50608 22.4436L4.5083 17.4458C4.17174 17.1092 4.17174 16.5636 4.5083 16.227L9.50608 11.2292C9.80304 10.9323 10.2845 10.9323 10.5815 11.2292C10.8784 11.5262 10.8784 12.0077 10.5815 12.3046L6.0497 16.8364L10.5815 21.3682C10.8784 21.6651 10.8784 22.1466 10.5815 22.4436Z" fill="#555555" stroke="#555555" stroke-width="0.313984" stroke-linecap="round"/>
<path fill-rule="evenodd" clip-rule="evenodd" d="M17.7328 7.3735C17.7328 6.95353 18.0733 6.61308 18.4932 6.61308H23.1234C23.5993 6.61308 23.9852 6.99892 23.9852 7.47489V26.1981C23.9852 26.6741 23.5993 27.0599 23.1234 27.0599H17.8173C17.3973 27.0599 17.0569 26.7195 17.0569 26.2995C17.0569 25.8796 17.3973 25.5391 17.8173 25.5391H22.4643V8.13392H18.4932C18.0733 8.13392 17.7328 7.79346 17.7328 7.3735Z" fill="#555555" stroke="#555555" stroke-width="0.313984" stroke-linecap="round"/>
</svg>
