<svg width="25" height="23" viewBox="0 0 25 23" fill="none" xmlns="http://www.w3.org/2000/svg">
    <path fill-rule="evenodd" clip-rule="evenodd"
        d="M5.09895 7.13391H0.00635529C0.00635529 3.045 2.45636 0.656334 6.60747 0.656334H17.4774C21.6285 0.656334 24.0785 3.045 24.0785 7.08175V15.8958C24.0785 19.9326 21.6285 22.3213 17.4774 22.3213H6.60747C2.45636 22.3213 0.00635529 19.9326 0.00635529 15.8958V15.5203H5.09895C7.46245 15.5203 9.37844 13.6523 9.37844 11.348C9.37844 9.04365 7.46245 7.17563 5.09895 7.17563V7.13391ZM5.09912 8.92803H0.905226C0.408892 8.92803 0.00653267 9.32031 0.00653267 9.80422V12.85C0.01231 13.3316 0.411304 13.7206 0.905226 13.7262H5.00284C6.19935 13.7419 7.24564 12.9432 7.51703 11.8069C7.65295 11.1016 7.46215 10.3737 6.99579 9.81846C6.52943 9.26318 5.83518 8.93725 5.09912 8.92803ZM4.91718 12.1303H4.52132C4.01317 12.1303 3.60123 11.7287 3.60123 11.2333C3.60123 10.7378 4.01317 10.3362 4.52132 10.3362H4.91718C5.16021 10.3334 5.39428 10.4256 5.56714 10.5922C5.74001 10.7588 5.83728 10.9859 5.83727 11.2228C5.8373 11.72 5.42705 12.1246 4.91718 12.1303ZM18.3759 7.13392H11.5822C11.0741 7.13392 10.6621 6.73229 10.6621 6.23686C10.6621 5.74143 11.0741 5.33981 11.5822 5.33981H18.3759C18.8799 5.33978 19.2901 5.73508 19.296 6.22643C19.296 6.72358 18.8858 7.1282 18.3759 7.13392Z"
        fill="#555555" />
</svg>